<svg width="1400" height="820" viewBox="0 0 1400 820" fill="none" xmlns="http://www.w3.org/2000/svg">
  <rect width="1400" height="820" fill="white"/>
  <g stroke="#1f1f1f" stroke-width="8" stroke-linecap="round" stroke-linejoin="round">
    <path d="M316 228c18-105 139-170 317-179 194-10 337 58 375 163 34 95-25 175-151 217-151 51-364 28-476-51-48-34-72-83-65-150Z"/>
    <path d="M385 219c45-73 146-111 284-117 147-6 253 35 297 107 43 71-1 135-113 171-135 44-319 23-415-45-42-30-60-69-53-116Z"/>
    <path d="M436 244c71-31 158-46 258-43 99 2 179 22 228 57"/>
    <path d="M406 295c64 48 185 75 307 69 111-6 202-37 245-82"/>
    <path d="M469 149c-18 18-33 44-42 72"/>
    <path d="M934 144c18 20 31 45 38 75"/>
    <path d="M341 331c16 27 40 51 72 70"/>
    <path d="M819 442c-48 13-104 20-163 20"/>
    <path d="M541 176l32 16"/>
    <path d="M648 155l36 9"/>
    <path d="M756 169l34 17"/>
    <path d="M849 212l25 17"/>
    <path d="M556 281l32 20"/>
    <path d="M675 290l29 16"/>
    <path d="M792 300l34-2"/>
    <path d="M465 332l26 17"/>
    <path d="M614 372l36 2"/>
    <path d="M910 332l31-16"/>
    <path d="M505 223c4-10 15-14 28-8"/>
    <path d="M644 237c9-12 25-12 39-2"/>
    <path d="M807 232c13-10 29-9 40 3"/>
    <path d="M722 348c13-8 28-6 38 6"/>
    <path d="M573 409c-11-1-16-8-12-17"/>
  </g>
  <g stroke="#1f1f1f" stroke-width="7" stroke-linecap="round" stroke-linejoin="round">
    <path d="M177 494c48-25 116-19 154 14 32 28 25 64-16 81-47 19-111 5-143-31-22-25-20-49 5-64Z"/>
    <path d="M188 518c37-15 83-10 110 12 23 19 16 43-17 54-35 12-80 3-102-21-15-17-12-34 9-45Z"/>
    <path d="M212 538c22-7 48-5 63 6"/>
    <path d="M244 504c-9 26-8 52 4 76"/>
    <path d="M876 591c93 19 181-3 251-73"/>
    <path d="M943 571c49-61 91-92 132-91 28 1 39 25 22 47"/>
    <path d="M999 546c9 49 2 88-21 117"/>
    <path d="M1054 518c-7 49-6 87 4 114"/>
    <path d="M891 583l57 43"/>
    <path d="M936 572l44 57"/>
    <path d="M1001 546l34 61"/>
    <path d="M1115 521l32-30"/>
    <path d="M1171 239c35-6 64-23 86-50 22-28 34-57 34-87 0-13 20-14 26-1 12 31 7 69-15 113-25 50-61 84-108 101-34 12-63-10-51-45 4-13 14-24 28-31Z"/>
    <path d="M1184 271c45 1 84-20 117-62"/>
    <path d="M1275 169c12-12 22-27 29-46"/>
    <path d="M1191 288l25 14"/>
    <path d="M1236 274l17 18"/>
    <path d="M1270 241l23 8"/>
    <path d="M122 299c-28 6-51 25-62 52 36-5 66-24 88-56"/>
    <path d="M87 309c-13 33-14 71-5 113"/>
    <path d="M68 357l44-4"/>
    <path d="M87 382l42 21"/>
    <path d="M125 340l38 7"/>
    <path d="M1020 371c41-23 83-16 124 20-48 17-94 13-138-13"/>
    <path d="M1074 340c-15 30-21 65-17 105"/>
    <path d="M1033 374l34 34"/>
    <path d="M1085 391l43 41"/>
    <path d="M1111 374l37-8"/>
    <path d="M400 589c51-34 104-36 158-5-23 42-67 59-132 50-32-5-41-26-26-45Z"/>
    <path d="M424 599c34-20 70-22 109-5"/>
    <path d="M456 628c10-19 24-32 43-40"/>
    <path d="M507 625c-4-15-2-28 7-40"/>
    <path d="M731 507c56-30 116-26 181 11 6 43-17 71-68 83-55 13-103-1-143-43-13-14-3-37 30-51Z"/>
    <path d="M749 542l139 31"/>
    <path d="M788 506c-4 25-1 45 11 61"/>
    <path d="M859 517c-13 18-18 38-15 60"/>
    <path d="M146 151c-41-13-57-39-48-76 40 8 62 28 67 60"/>
    <path d="M111 99c19 13 35 27 48 44"/>
    <path d="M1238 444c37-8 68 5 91 37-37 23-74 20-110-8"/>
    <path d="M1258 464l51 17"/>
    <path d="M1224 498c22-9 42-4 58 13"/>
    <path d="M1264 526c17-12 35-11 53 4"/>
    <circle cx="131" cy="615" r="44"/>
    <path d="M103 615c21-24 42-24 63 0"/>
    <path d="M111 648c25-17 49-17 73 0"/>
    <path d="M1163 507c46-13 94-7 144 17"/>
    <circle cx="1176" cy="487" r="14"/>
    <circle cx="1222" cy="482" r="15"/>
    <circle cx="1268" cy="488" r="14"/>
    <circle cx="1195" cy="531" r="15"/>
    <circle cx="1242" cy="530" r="14"/>
    <circle cx="1287" cy="528" r="15"/>
    <path d="M585 503c18-26 43-35 74-26-11 31-33 49-66 53"/>
    <path d="M607 493l38 24"/>
    <path d="M706 631c-10-37 3-63 39-77 28 27 27 55-3 84 30-13 54-4 72 28-29 28-63 31-102 9-6 17-22 27-48 30 2-29 16-54 42-74Z"/>
    <path d="M735 587l28 78"/>
    <path d="M1117 696c28-36 62-53 104-51-20 46-53 70-99 72"/>
    <path d="M1147 693l65-39"/>
    <path d="M1168 675l3-32"/>
    <path d="M1195 661l32 12"/>
  </g>
</svg>
