<svg width="280" height="280" viewBox="0 0 280 280" fill="none" xmlns="http://www.w3.org/2000/svg">
  <g stroke="#202020" stroke-width="3.5" stroke-linecap="round" stroke-linejoin="round" opacity=".18">
    <path d="M32 46c19-14 43-12 63 4l-62 42c-8-17-8-33-1-46Z"/>
    <path d="M43 55c12-4 24-1 34 8"/>
    <path d="M58 74c7-3 15-1 21 4"/>
    <circle cx="56" cy="64" r="3"/>
    <circle cx="76" cy="52" r="3"/>
    <path d="M171 30c17 0 32 11 39 27-18 10-38 7-53-8 5-7 9-13 14-19Z"/>
    <path d="M180 42c6 3 12 8 17 15"/>
    <path d="M156 122c28-8 58 2 82 30-28 18-61 15-92-7"/>
    <path d="M178 114c-13 22-17 48-11 77"/>
    <path d="M166 143l33 24"/>
    <path d="M195 139l32 30"/>
    <path d="M92 178c28-15 58-14 88 4-14 23-39 34-76 31-24-2-30-22-12-35Z"/>
    <path d="M111 190c20-8 39-8 59 0"/>
    <path d="M132 210c5-12 13-20 25-25"/>
    <path d="M42 196c24-12 48-8 70 13-25 17-51 15-77-4"/>
    <path d="M55 204l39 11"/>
    <path d="M224 214c16-18 35-24 58-17-8 22-25 35-51 38"/>
    <path d="M239 215l25 11"/>
    <path d="M213 82c18-4 33 1 46 15-16 14-34 17-53 8"/>
    <path d="M230 89l17 14"/>
  </g>
  <g stroke="#c0542d" stroke-width="3" stroke-linecap="round" stroke-linejoin="round" opacity=".18">
    <path d="M116 48l23-14 2 29-13-6-12 13v-22Z"/>
    <path d="M36 132c18-9 37-7 55 7-18 12-37 12-56 0"/>
    <path d="M53 138c9-5 18-5 27 0"/>
    <path d="M224 42c11-11 24-16 39-15-5 17-16 27-33 31"/>
    <path d="M242 39l16-7"/>
    <circle cx="229" cy="132" r="6"/>
    <circle cx="252" cy="130" r="6"/>
    <circle cx="241" cy="153" r="6"/>
    <path d="M18 245c9-13 21-19 37-19-5 15-16 24-32 27"/>
    <path d="M30 245l19-13"/>
  </g>
</svg>
